<?xml version="1.0" encoding="UTF-8"?><svg id="_圖層_2" xmlns="http://www.w3.org/2000/svg" viewBox="0 0 94.08 31.79"><defs><style>.cls-1{fill:#0080c0;}</style></defs><g id="_圖層_1-2"><g><circle class="cls-1" cx="16.59" cy="24.9" r="6.89" transform="translate(-2.41 1.79) rotate(-5.74)"/><circle class="cls-1" cx="71.72" cy="24.9" r="6.89" transform="translate(-3.54 14.93) rotate(-11.6)"/><path class="cls-1" d="M92.91,16.82s.55-5.94-1.29-8.15l-10.89-1C62.87-3.04,41.29-.09,35.73,2.13c-4.21,1.68-13.6,7.15-13.6,7.15l-10.94,1.82S2.5,12.86,1.23,18.33c0,0-1.19,.77-1.19,2.38v3.86s-.79,2.1,4.51,2.1h3.65c-.12-.57-.19-1.17-.19-1.77,0-4.73,3.85-8.57,8.57-8.57s8.57,3.85,8.57,8.57c0,.61-.07,1.2-.19,1.77H63.34c-.12-.57-.19-1.17-.19-1.77,0-4.73,3.85-8.57,8.57-8.57s8.57,3.85,8.57,8.57c0,.6-.06,1.19-.18,1.75l10.18-.68s6.33-1.91,2.61-9.15ZM25.04,11.42c-3.53-.48,5.06-4.5,9.91-6.65,4.85-2.15,11.36-2.56,11.36-2.56,0,0,.52,.02,2.36,.03h0l-1.62,8.19-22,1Zm44.26-2.01l-18.96,.86,.95-8.03c1.47,0,3.35-.01,5.75-.03,8.94-.07,14.68,5.54,14.68,5.54l-2.42,1.66Z"/></g></g></svg>