<?xml version="1.0" encoding="UTF-8"?><svg id="_層_2" xmlns="http://www.w3.org/2000/svg" viewBox="0 0 53.9 53.9"><defs><style>.cls-1{fill:#fff;}</style></defs><g id="_層_2-2"><g id="_"><g><path class="cls-1" d="M46,7.89C40.91,2.8,34.15,0,26.95,0S12.98,2.8,7.89,7.89C2.8,12.98,0,19.75,0,26.95s2.8,13.97,7.89,19.06c5.09,5.09,11.86,7.89,19.06,7.89s13.97-2.8,19.05-7.89c5.09-5.09,7.89-11.86,7.89-19.06s-2.8-13.97-7.89-19.06ZM28.65,48.1c0-.07,.02-.15,.02-.22v-3.01c0-.95-.77-1.72-1.72-1.72s-1.72,.77-1.72,1.72v3.01c0,.08,0,.15,.02,.22-10.34-.83-18.61-9.1-19.45-19.43,.08,.01,.16,.02,.24,.02h3.01c.95,0,1.72-.77,1.72-1.72s-.77-1.72-1.72-1.72h-3.01c-.08,0-.16,0-.24,.02C6.62,14.91,14.9,6.62,25.25,5.8c-.01,.08-.02,.17-.02,.25v3.01c0,.95,.77,1.72,1.72,1.72s1.72-.77,1.72-1.72v-3.01c0-.09,0-.17-.02-.25,10.35,.82,18.63,9.11,19.45,19.46-.08-.01-.16-.02-.24-.02h-3.01c-.95,0-1.72,.77-1.72,1.72s.77,1.72,1.72,1.72h3.01c.08,0,.16,0,.24-.02-.83,10.34-9.1,18.61-19.45,19.43Z"/><path class="cls-1" d="M32.01,19.77l-3.99,3.79c-.34-.11-.7-.17-1.07-.17-.3,0-.58,.04-.86,.11l-8.18-8.8c-.65-.7-1.73-.73-2.43-.09-.7,.65-.73,1.73-.09,2.43l8.18,8.8c-.11,.35-.18,.72-.18,1.11,0,1.96,1.59,3.55,3.55,3.55s3.55-1.59,3.55-3.55c0-.31-.04-.61-.11-.89l3.99-3.79c.69-.65,.72-1.74,.06-2.43-.65-.69-1.74-.72-2.43-.06Z"/></g></g></g></svg>