<?xml version="1.0" encoding="UTF-8"?><svg id="_層_2" xmlns="http://www.w3.org/2000/svg" viewBox="0 0 12.32 24.62"><defs><style>.cls-1{fill:#fff;}</style></defs><g id="_層_1-2"><path class="cls-1" d="M3.56,24.62c0-.09,.01-.18,.01-.26,0-3.49,0-6.97,0-10.46,0-.25-.06-.3-.3-.3-1.02,.01-2.04,0-3.05,.01-.18,0-.23-.04-.23-.22,0-1.31,0-2.63,0-3.94,0-.19,.06-.22,.23-.22,1.03,0,2.07,0,3.1,0,.21,0,.25-.06,.25-.25,0-1.3-.06-2.6,.03-3.89,.11-1.52,.6-2.88,1.81-3.9C6.4,.37,7.57,.04,8.82,0c1.1-.03,2.19,.04,3.29,.14,.17,.01,.21,.08,.21,.24,0,1.17,0,2.34,0,3.51,0,.16-.04,.2-.2,.2-.74,0-1.47,0-2.21,0-.32,0-.64,.05-.94,.17-.64,.24-.92,.76-.97,1.4-.08,1.14-.02,2.29-.04,3.44,0,.17,.11,.14,.21,.14,1.17,0,2.34,0,3.51,0,.22,0,.26,.05,.23,.27-.16,1.24-.31,2.48-.47,3.72,0,.07-.03,.14-.03,.21,0,.17-.08,.19-.22,.19-.98,0-1.96,0-2.93,0-.24,0-.3,.06-.3,.3,0,3.49,0,6.97,0,10.46,0,.09,.01,.17,.02,.26H3.56Z"/></g></svg>