<?xml version="1.0" encoding="UTF-8"?><svg id="_層_2" xmlns="http://www.w3.org/2000/svg" viewBox="0 0 24.63 24.62"><defs><style>.cls-1{fill:#fff;}</style></defs><g id="_層_1-2"><g><path class="cls-1" d="M9.28,0h6.16c.28,.07,.57,.04,.86,.04,1.02,.02,2.03,.06,3.03,.29,1.83,.43,3.3,1.37,4.23,3.05,.61,1.11,.9,2.31,.96,3.56,.15,3.32,.12,6.63,.04,9.95-.02,.8-.09,1.6-.28,2.38-.61,2.54-2.13,4.22-4.66,4.93-1.02,.28-2.07,.34-3.12,.37-2.44,.06-4.87,.04-7.31,.05-1.23,0-2.45-.04-3.66-.29-1.96-.4-3.49-1.4-4.49-3.15-.63-1.1-.84-2.31-.95-3.54-.04-.41-.02-.83-.09-1.24V8.08c.01-.12,.03-.24,.04-.35,.03-.74,.11-1.47,.25-2.19C.82,2.77,2.77,.82,5.53,.28,6.57,.08,7.63,.06,8.69,.04c.2,0,.4,.02,.6-.04Zm13.11,11.96c0-.91,.02-1.83,0-2.74-.03-1.09,0-2.18-.22-3.26-.34-1.73-1.32-2.88-3.04-3.36-.71-.2-1.43-.29-2.15-.34-1.7-.12-3.4-.02-5.09-.06-1.23-.03-2.45,0-3.68,.02-.9,.01-1.79,.06-2.67,.28-1.44,.38-2.43,1.23-2.91,2.67-.36,1.08-.44,2.2-.45,3.32-.02,2.6-.02,5.21,0,7.81,0,.78,.06,1.55,.23,2.32,.42,1.92,1.55,3.13,3.51,3.51,.81,.16,1.62,.21,2.44,.23,2.33,.05,4.66,.04,7,.03,1.07,0,2.15-.03,3.21-.22,1.87-.33,3.12-1.49,3.54-3.3,.17-.72,.23-1.46,.26-2.19,.07-1.57,.04-3.14,.03-4.71Z"/><path class="cls-1" d="M12.32,5.99c3.49,0,6.31,2.81,6.31,6.31,0,3.5-2.83,6.33-6.33,6.32-3.49,0-6.3-2.83-6.3-6.32,0-3.49,2.83-6.31,6.31-6.31Zm0,2.22c-2.27,0-4.1,1.81-4.11,4.08,0,2.27,1.81,4.1,4.08,4.11,2.28,0,4.12-1.82,4.12-4.09,0-2.27-1.82-4.09-4.09-4.1Z"/><path class="cls-1" d="M18.89,4.27c.82,0,1.46,.64,1.47,1.46,0,.83-.65,1.49-1.47,1.48-.82,0-1.48-.67-1.47-1.49,0-.81,.66-1.46,1.48-1.46Z"/></g></g></svg>