<?xml version="1.0" encoding="UTF-8"?><svg id="_層_2" xmlns="http://www.w3.org/2000/svg" viewBox="0 0 24.64 23.59"><defs><style>.cls-1{fill:#fff;}</style></defs><g id="_層_1-2"><path class="cls-1" d="M0,10.64v-1.2c.08-.42,.11-.85,.22-1.27,.58-2.37,1.97-4.19,3.91-5.61C6.06,1.14,8.24,.37,10.61,.1c2.36-.27,4.66-.02,6.87,.83,2.45,.94,4.49,2.4,5.86,4.68,1.53,2.54,1.72,5.2,.49,7.93-.58,1.28-1.47,2.35-2.45,3.34-1.58,1.6-3.37,2.94-5.21,4.2-1.2,.82-2.42,1.63-3.73,2.28-.23,.11-.47,.21-.73,.23-.35,.02-.51-.13-.51-.47,0-.08,.01-.16,.02-.24,.08-.64,.25-1.27,.22-1.93-.02-.35-.17-.59-.48-.74-.31-.15-.63-.22-.97-.27-2.4-.37-4.58-1.25-6.46-2.81-1.61-1.33-2.76-2.98-3.29-5.02-.13-.48-.17-.97-.25-1.46Zm12.27-.91c.07,.1,.13,.17,.19,.25,.74,1.01,1.49,2.03,2.23,3.04,.21,.29,.48,.39,.77,.3,.28-.09,.45-.34,.45-.69,0-.14,0-.29,0-.43,0-1.4,0-2.81,0-4.21,0-.07,0-.14,0-.22-.02-.37-.3-.64-.65-.64-.36,0-.64,.28-.64,.67,0,.91,0,1.81,0,2.72,0,.08,.02,.17-.04,.26-.17-.23-.33-.44-.48-.65-.66-.9-1.32-1.8-1.98-2.69-.15-.21-.35-.33-.62-.29-.25,.04-.42,.18-.52,.42-.05,.12-.04,.25-.04,.38,0,1.41,0,2.82,0,4.23,0,.21,0,.42,.01,.62,.03,.29,.26,.52,.55,.55,.32,.03,.61-.15,.69-.44,.03-.11,.03-.24,.03-.36,0-.84,0-1.68,0-2.52,0-.09-.02-.17,.04-.29Zm6.37,3.62h0c.42,0,.83,0,1.25,0,.36-.01,.62-.29,.61-.64,0-.38-.28-.64-.71-.65-.51,0-1.03,0-1.54,0-.15,0-.2-.04-.19-.19,.01-.26,.01-.51,0-.77,0-.18,.06-.21,.22-.21,.49,0,.98,0,1.47,0,.1,0,.21,0,.31-.03,.3-.11,.48-.4,.43-.72-.05-.32-.3-.54-.66-.55-.53,0-1.06,0-1.59,0-.15,0-.19-.04-.19-.19,.01-.26,.01-.51,0-.77-.01-.18,.06-.21,.22-.21,.51,0,1.03,0,1.54,0,.4,0,.69-.28,.68-.65,0-.37-.29-.64-.69-.64-.79,0-1.57,0-2.36,0-.43,0-.68,.26-.69,.69,0,1.61,0,3.22,0,4.83,0,.43,.25,.68,.69,.69,.39,0,.79,0,1.18,0Zm-12.96-3.52h0c0-.67,0-1.35,0-2.02,0-.02,0-.05,0-.07-.03-.34-.28-.59-.6-.6-.34-.02-.62,.22-.67,.56-.01,.09-.01,.18-.01,.26,0,1.52,0,3.04,0,4.56,0,.09,0,.18,.01,.26,.05,.33,.28,.56,.61,.56,.83,0,1.67,0,2.5,0,.26,0,.44-.14,.55-.36,.21-.44-.1-.91-.63-.93-.5-.01-1.01,0-1.51,0-.18,0-.25-.03-.25-.23,.01-.66,0-1.33,0-1.99Zm4.33,.41c0-.76,0-1.52,0-2.28,0-.52-.23-.81-.64-.82-.42,0-.65,.29-.65,.83,0,1.52,0,3.05,0,4.57,0,.09,0,.18,.01,.26,.04,.32,.3,.55,.62,.55,.38,0,.64-.27,.65-.68,0-.81,0-1.62,0-2.43Z"/></g></svg>