<?xml version="1.0" encoding="UTF-8"?><svg id="_層_2" xmlns="http://www.w3.org/2000/svg" viewBox="0 0 314.7 77.73"><defs><style>.cls-1{fill:#fff;}.cls-2{fill:#0080c5;}</style></defs><g id="_層_1-2"><g><path class="cls-1" d="M110.1,22.06c1.13,0,1.77,.5,1.91,1.51,.06,.46-.01,.97-.23,1.51l-12,27.23c-.35,.84-.95,1.56-1.82,2.14-.86,.59-1.7,.88-2.49,.88H53.11c-1.18,0-1.83-.5-1.97-1.51-.06-.46,.01-.97,.23-1.51l5.32-12.1c.39-.84,1-1.55,1.85-2.14,.84-.59,1.69-.88,2.53-.88h21.18c.84,0,1.69-.29,2.54-.88,.85-.59,1.47-1.3,1.86-2.14l2.65-6.03c.19-.55,.25-1.06,.19-1.53-.14-1.02-.78-1.53-1.91-1.53-.83,0-1.66,.3-2.5,.89-.83,.59-1.44,1.31-1.82,2.16l-1.34,3.03c-.35,.83-.96,1.54-1.83,2.12-.87,.58-1.7,.87-2.5,.87h-15.17c-1.18,0-1.84-.5-1.98-1.51-.06-.46,.01-.97,.23-1.51l2.69-6.05c.35-.84,.95-1.55,1.82-2.14,.86-.59,1.72-.88,2.56-.88h42.36Zm-27.47,21.17c.23-.55,.31-1.05,.24-1.51-.14-1.01-.8-1.51-1.97-1.51-.84,0-1.68,.29-2.53,.88-.84,.59-1.44,1.3-1.79,2.14l-2.69,6.05c-.22,.55-.3,1.05-.23,1.51,.14,1.01,.78,1.51,1.91,1.51,.84,0,1.69-.29,2.56-.88,.86-.59,1.47-1.3,1.82-2.14l2.68-6.06Zm22.8,12.11c-1.18,0-1.83-.5-1.97-1.51-.06-.46,.01-.97,.23-1.51l12-27.23c.35-.84,.95-1.55,1.82-2.14,.86-.59,1.69-.88,2.49-.88h15.13c1.18,0,1.84,.5,1.97,1.51,.06,.46-.01,.97-.23,1.51l-12,27.23c-.35,.84-.95,1.56-1.82,2.14-.86,.59-1.7,.88-2.49,.88h-15.13Zm72.82-14.25c-.84,.59-1.46,1.3-1.85,2.13l-2.64,6.03c-.22,.55-.3,1.06-.23,1.53,.14,1.02,.8,1.53,1.98,1.53,.84,0,1.68-.29,2.53-.88,.84-.59,1.46-1.3,1.85-2.14l1.35-3.03c.35-.84,.94-1.55,1.78-2.14,.84-.59,1.68-.88,2.53-.88h15.13c1.18,0,1.84,.5,1.97,1.51,.06,.46-.01,.97-.23,1.51l-2.7,6.05c-.35,.84-.95,1.56-1.82,2.14-.86,.59-1.72,.88-2.56,.88h-42.36c-1.13,0-1.77-.5-1.91-1.51-.06-.46,.01-.97,.23-1.51l12-27.23c.35-.84,.94-1.55,1.78-2.14,.84-.59,1.68-.88,2.53-.88h42.36c1.18,0,1.83,.5,1.97,1.51,.06,.46-.01,.97-.23,1.51l-5.33,12.1c-.39,.84-1,1.56-1.85,2.14-.85,.59-1.69,.88-2.53,.88h-21.21c-.84,0-1.69,.29-2.53,.88Zm2.16-6.94c-.21,.55-.28,1.05-.21,1.52,.14,1.01,.8,1.52,1.98,1.52,.8,0,1.63-.29,2.49-.88,.86-.59,1.47-1.3,1.81-2.14l2.69-6.05c.22-.54,.3-1.05,.23-1.51-.14-1.01-.78-1.51-1.92-1.51-.84,0-1.7,.29-2.57,.88-.87,.59-1.48,1.3-1.82,2.13l-2.69,6.05Zm81.18-12.09c1.18,0,1.83,.5,1.97,1.51,.06,.46-.01,.97-.23,1.51l-12,27.23c-.35,.84-.95,1.56-1.82,2.14-.86,.59-1.7,.88-2.49,.88h-15.13c-1.18,0-1.83-.5-1.97-1.51-.06-.46,.01-.97,.23-1.51l10.65-24.21c.22-.54,.3-1.05,.23-1.51-.14-1.01-.78-1.51-1.91-1.51-.84,0-1.69,.29-2.55,.88-.86,.59-1.47,1.31-1.81,2.15l-10.65,24.2c-.35,.84-.95,1.55-1.82,2.14-.86,.59-1.7,.88-2.49,.88h-15.13c-1.18,0-1.84-.5-1.97-1.51-.06-.46,.01-.97,.23-1.51l12-27.23c.35-.84,.95-1.55,1.81-2.14,.86-.59,1.7-.88,2.49-.88h42.36Zm17.45,40.53c-.32-.46-.52-1.05-.62-1.76-.15-1.05-.02-2,.36-2.84,.2-.42,.27-.82,.21-1.2-.13-.97-.83-1.45-2.09-1.45h-21.18c-1.13,0-1.77-.5-1.91-1.51-.06-.46,.01-.97,.23-1.51l12-27.23c.35-.84,.94-1.55,1.78-2.14,.84-.59,1.69-.88,2.53-.88h42.36c1.18,0,1.84,.5,1.97,1.51,.06,.46-.01,.97-.23,1.51l-2.69,6.05c-.35,.84-.95,1.56-1.82,2.14-.86,.59-1.72,.88-2.56,.88h-15.13c-1.13,0-1.77-.5-1.91-1.51-.06-.46,.01-.97,.23-1.51l1.34-3.03c.22-.54,.31-1.05,.24-1.51-.14-1.01-.78-1.51-1.91-1.51-.84,0-1.69,.29-2.56,.88-.86,.59-1.47,1.3-1.82,2.14l-9.3,21.18c-.26,.55-.36,1.05-.3,1.51,.14,1.01,.8,1.51,1.97,1.51,.84,0,1.68-.3,2.52-.88,.84-.59,1.45-1.31,1.84-2.15l3.98-9.07c.35-.84,.95-1.55,1.82-2.14,.86-.59,1.72-.88,2.56-.88h15.13c1.13,0,1.77,.5,1.91,1.51,.06,.46-.01,.97-.23,1.51l-15.57,35.55c-.48,1.09-1.08,1.64-1.79,1.64-.38,0-.72-.21-1.03-.63l-10.34-14.18ZM.31,71.37c1.55-3.4,2.68-6.02,3.38-7.86l.31-.82c.77,0,1.28,.01,1.54,.01,.12,0,.59,0,1.42-.01-.44,.95-.85,1.86-1.23,2.71-.52,1.19-.98,2.3-1.4,3.33-.42,1.03-.77,1.91-1.05,2.64H1.93c-.26-.01-.81,0-1.63,0Zm4.6,0l.64-1.33,1.99-4.53,.77-1.82,.38-.99c.68,0,1.28,.01,1.81,.01,.37,0,.9,0,1.58-.01l.93,4.93,.11,.72c.32-.71,.75-1.71,1.3-2.99,.54-1.28,.91-2.17,1.09-2.66h0c.54,0,.97,.01,1.29,.01,.15,0,.58,0,1.3-.01l-.88,1.89-2.31,5.26-.62,1.52c-.57,0-1.1-.01-1.6-.01-.41,0-.99,0-1.72,.01-.07-.41-.12-.72-.16-.9l-.41-1.81c-.14-.59-.26-1.16-.36-1.7-.07-.34-.14-.72-.19-1.13l-1.29,3.01-1.04,2.54c-.54,0-.95-.01-1.24-.01-.24,0-.7,0-1.36,.01Zm13.09,0c1.01-2.06,2-4.33,2.99-6.8l-2.83,.07,.3-.71c.16-.38,.33-.79,.51-1.24,1.25,0,2.7,.01,4.36,.01h4.07l-.28,.61c-.15,.33-.26,.61-.35,.83-.09,.22-.16,.38-.2,.49-.92-.05-1.69-.07-2.3-.07h-.46c-.35,.75-.67,1.44-.95,2.08-.4,.91-.77,1.79-1.12,2.65-.35,.86-.63,1.55-.83,2.08h0c-.72,0-1.18-.01-1.39-.01-.19,0-.7,0-1.52,.01Zm6.56,0c.53-1.09,.96-2.01,1.29-2.75,.33-.74,.76-1.72,1.28-2.94,.52-1.22,.85-2.03,1-2.43l.21-.56c1.03,0,2.29,.01,3.76,.01,1.36,0,2.56,0,3.6-.01l-.09,.21c-.02,.05-.11,.23-.24,.55l-.3,.69c-.07,.15-.13,.3-.18,.45-.84-.03-1.54-.05-2.12-.05-.63,0-1.06,0-1.28,0-.22,0-.57,.01-1.05,.03l-.64,1.46c.51,.01,1.12,.02,1.81,.02,.25,0,.91-.01,1.98-.04-.25,.54-.54,1.19-.86,1.94h0c-.76,0-1.34,0-1.75,0-.61,0-1.29,.01-2.05,.04l-.67,1.54h.76c.22,0,.69,0,1.4-.02l1.38-.03c.2,0,.55-.02,1.03-.05-.29,.63-.58,1.28-.87,1.95-1.07,0-2.24-.01-3.52-.01h-3.84Zm8.9,.01c.37-.75,.69-1.42,.97-2.02,.28-.6,.58-1.29,.92-2.08,.34-.79,.68-1.62,1.03-2.5,.35-.87,.63-1.57,.82-2.09,.54,.01,.99,.02,1.32,.02s.78,0,1.3-.03c.51-.02,1.01-.03,1.49-.03,.56,0,1.06,.02,1.48,.06,.32,.03,.59,.09,.83,.18,.23,.09,.42,.21,.55,.34,.13,.13,.23,.28,.29,.45,.06,.17,.08,.36,.06,.58-.02,.22-.07,.46-.17,.72-.11,.28-.25,.55-.42,.8-.17,.25-.38,.48-.62,.7-.24,.22-.52,.41-.82,.57-.3,.16-.71,.32-1.21,.49l.03,.81c.01,.22,.03,.45,.05,.69l.17,1.86c0,.08,.02,.24,.03,.48-.72,0-1.21-.01-1.46-.01-.32,0-.84,0-1.56,.01,.01-.22,.04-.63,.09-1.23,.02-.25,.03-.44,.03-.58,0-.3,.01-.72,.01-1.27v-1.8c.23,.04,.45,.06,.68,.06,.32,0,.63-.05,.93-.14,.3-.09,.55-.24,.76-.43,.21-.2,.35-.4,.44-.62,.07-.18,.08-.34,.03-.48-.05-.14-.17-.24-.36-.31-.19-.07-.51-.1-.97-.1-.15,0-.31,0-.48,0-.17,0-.36,.01-.58,.02-.39,.87-.84,1.93-1.36,3.18-.52,1.25-1.02,2.48-1.49,3.68h0c-.73,0-1.21-.01-1.43-.01-.26,0-.72,0-1.39,.01Zm9.48,0l.64-1.33,1.99-4.53,.77-1.82,.38-.99c.68,0,1.28,.01,1.81,.01,.37,0,.9,0,1.58-.01l.93,4.93,.11,.72c.32-.71,.75-1.71,1.3-2.99,.54-1.28,.91-2.17,1.09-2.66h0c.54,0,.97,.01,1.29,.01,.15,0,.58,0,1.3-.01l-.88,1.89-2.31,5.26-.62,1.52c-.57,0-1.1-.01-1.6-.01-.41,0-.99,0-1.72,.01-.07-.41-.12-.72-.16-.9l-.41-1.81c-.14-.59-.26-1.16-.36-1.7-.07-.34-.13-.72-.19-1.13l-1.29,3.01-1.04,2.54c-.54,0-.95-.01-1.24-.01-.24,0-.7,0-1.36,.01Zm9.9,0l.9-.92,5.78-6.19,.63-.69c.18-.2,.44-.5,.78-.88h0c.77,0,1.33,.01,1.69,.01,.62,0,1.2,0,1.73-.01l-.05,2.65v5.1l.04,.93c-.76,0-1.22-.01-1.38-.01-.37,0-.92,0-1.64,.01,.07-.7,.11-1.52,.11-2.47h-3.32c-.63,.71-1.31,1.49-2.01,2.33-.07,.08-.19,.14-.31,.13-.7,0-1.14-.01-1.31-.01-.33,0-.88,0-1.62,.01Zm6.76-4.32h2.05c.06-1.49,.1-2.32,.11-2.47-.53,.62-.97,1.13-1.32,1.53l-.83,.94Zm7.43,4.32c1.01-2.06,2-4.33,2.99-6.8l-2.83,.07,.3-.71c.16-.38,.33-.79,.51-1.24,1.25,0,2.7,.01,4.36,.01h4.07l-.28,.61c-.15,.33-.26,.61-.35,.83-.09,.22-.16,.38-.2,.49-.92-.05-1.69-.07-2.3-.07h-.46c-.35,.75-.67,1.44-.95,2.08-.4,.91-.77,1.79-1.12,2.65-.35,.86-.63,1.55-.83,2.08h0c-.72,0-1.18-.01-1.39-.01-.19,0-.7,0-1.52,.01Zm6.6,0c1.55-3.4,2.68-6.02,3.38-7.86l.31-.82c.77,0,1.28,.01,1.54,.01,.12,0,.59,0,1.42-.01-.44,.95-.85,1.86-1.23,2.71-.52,1.19-.98,2.3-1.4,3.33-.42,1.03-.77,1.91-1.05,2.64h-1.35c-.26-.01-.81,0-1.63,0Zm13.42-8.84c.7,0,1.35,.09,1.93,.27,.58,.18,1.04,.47,1.37,.87,.33,.4,.52,.86,.57,1.38,.04,.52-.07,1.12-.32,1.8-.27,.71-.65,1.37-1.15,1.96-.49,.59-1.07,1.1-1.73,1.52-.66,.41-1.37,.72-2.14,.91-.77,.19-1.53,.29-2.28,.29s-1.42-.09-2.03-.28c-.61-.19-1.09-.49-1.43-.92-.34-.42-.52-.89-.53-1.41-.01-.52,.1-1.09,.34-1.72,.35-.93,.89-1.74,1.6-2.44,.71-.7,1.59-1.25,2.61-1.64,1.03-.39,2.09-.59,3.19-.59Zm-.85,1.91c-.51,0-1.01,.12-1.51,.36-.5,.24-.94,.57-1.32,1-.38,.43-.67,.88-.85,1.37-.25,.66-.26,1.23-.02,1.73,.19,.38,.7,.69,1.1,.69h.5c.49,0,.98-.12,1.48-.35,.5-.24,.93-.57,1.31-.99,.38-.43,.65-.87,.83-1.34,.17-.45,.23-.87,.18-1.25-.05-.38-.23-.68-.53-.89-.3-.21-.69-.32-1.17-.32Zm3.73,6.93l.64-1.33,1.99-4.53,.77-1.82,.38-.99c.68,0,1.28,.01,1.81,.01,.37,0,.9,0,1.58-.01l.93,4.93,.11,.72c.32-.71,.75-1.71,1.3-2.99,.54-1.28,.91-2.17,1.09-2.66h0c.54,0,.97,.01,1.29,.01,.15,0,.58,0,1.3-.01l-.88,1.89-2.31,5.26-.62,1.52c-.57,0-1.1-.01-1.6-.01-.41,0-.99,0-1.72,.01-.07-.41-.12-.72-.16-.9l-.41-1.81c-.14-.59-.26-1.16-.36-1.7-.07-.34-.13-.72-.19-1.13l-1.29,3.01-1.04,2.54c-.54,0-.95-.01-1.24-.01-.24,0-.7,0-1.36,.01Zm9.9,0l.9-.92,5.78-6.19,.63-.69c.18-.2,.44-.5,.78-.88h0c.77,0,1.33,.01,1.69,.01,.62,0,1.2,0,1.73-.01l-.05,2.65v5.1l.04,.93c-.76,0-1.22-.01-1.38-.01-.37,0-.92,0-1.64,.01,.07-.7,.11-1.52,.11-2.47h-3.32c-.63,.71-1.31,1.49-2.01,2.33-.07,.08-.19,.14-.31,.13-.7,0-1.14-.01-1.31-.01-.33,0-.88,0-1.62,.01Zm6.76-4.32h2.05c.06-1.49,.1-2.32,.11-2.47-.53,.62-.97,1.13-1.32,1.53l-.83,.94Zm5.35,4.32c.49-1,.88-1.82,1.17-2.45,.53-1.15,1.04-2.3,1.52-3.44,.48-1.14,.86-2.07,1.14-2.79,.59,0,1.12,.01,1.58,.01,.31,0,.76,0,1.35-.01l-1.04,2.3-1.57,3.6-.36,.88c.75,.01,1.24,.02,1.47,.02,1.16,0,2.04-.01,2.64-.04l-.88,1.92c-1.15,0-2.25-.01-3.3-.01-1.42,0-2.66,0-3.72,.01Zm37.16,0l.05-.78,.1-4.47,.04-3.43c.59,0,1.12,.01,1.59,.01,.29,0,.74,0,1.35-.01-.04,.38-.07,.66-.09,.86-.02,.25-.04,.71-.08,1.38l-.18,3.01c-.02,.31-.06,.72-.11,1.23l.58-.73,4.16-4.86c.07-.09,.16-.19,.25-.31,.09-.11,.25-.31,.46-.58,.64,0,1.15,.01,1.53,.01,.24,0,.72,0,1.44-.01-.76,.81-1.62,1.75-2.6,2.82l-3.94,4.35c-.38,.42-.82,.93-1.31,1.51-.74,0-1.26-.01-1.58-.01-.29,0-.85,0-1.67,.01Zm7.77,0c.53-1.09,.96-2.01,1.29-2.75,.33-.74,.76-1.72,1.28-2.94,.52-1.22,.85-2.03,1-2.43l.21-.56c1.03,0,2.29,.01,3.76,.01,1.36,0,2.56,0,3.6-.01l-.09,.21c-.02,.05-.11,.23-.24,.55l-.3,.69c-.07,.15-.13,.3-.18,.45-.84-.03-1.54-.05-2.12-.05-.63,0-1.06,0-1.28,0-.22,0-.57,.01-1.05,.03l-.64,1.46c.51,.01,1.12,.02,1.81,.02,.25,0,.91-.01,1.98-.04-.25,.54-.54,1.19-.87,1.94-.76,0-1.34-.01-1.75-.01-.61,0-1.29,.01-2.05,.04l-.67,1.54h.76c.22,0,.69,0,1.4-.02l1.38-.03c.2,0,.55-.02,1.03-.05-.29,.63-.58,1.28-.87,1.95-1.07,0-2.24-.01-3.52-.01h-3.84Zm8.94,.01l1.58-3.47,1.08-2.53,.46-1.13c.13-.33,.26-.64,.37-.94l.23-.61c.69,0,1.2,.01,1.55,.01,.27,0,.74,0,1.4-.01-.57,1.22-1.05,2.29-1.43,3.22h3.59c.15-.35,.35-.82,.6-1.41,.25-.59,.41-1,.49-1.21,.04-.11,.12-.31,.22-.6h1.56c.16,.01,.63,0,1.39,0-.99,2.18-1.71,3.8-2.16,4.86-.45,1.06-.96,2.33-1.52,3.82h-1.43c-.22-.01-.73,0-1.55,0,.5-1.01,1.02-2.18,1.57-3.52h-3.59l-1.46,3.52h-1.53c-.19-.01-.67,0-1.42,0Zm11.05,0c1.55-3.4,2.68-6.02,3.38-7.86l.31-.82c.77,0,1.28,.01,1.54,.01,.12,0,.59,0,1.42-.01-.44,.95-.85,1.86-1.23,2.71-.52,1.19-.98,2.3-1.4,3.33-.42,1.03-.77,1.91-1.05,2.64h-1.35c-.26-.01-.81,0-1.63,0Zm13.2-2.12c-.15,.25-.34,.6-.59,1.04-.25,.45-.43,.79-.55,1.04-.99,.14-1.86,.2-2.6,.2s-1.34-.09-1.89-.26c-.55-.17-1-.45-1.37-.84-.36-.39-.55-.85-.57-1.38s.1-1.12,.35-1.78c.29-.77,.7-1.46,1.24-2.07,.53-.61,1.15-1.12,1.86-1.53,.71-.41,1.43-.7,2.17-.88,.73-.18,1.45-.26,2.16-.26,.65,0,1.42,.08,2.32,.24l-.19,.53c-.08,.23-.16,.49-.25,.77l-.23,.72c-.47-.12-.85-.2-1.16-.24-.3-.04-.59-.06-.86-.06-.59,0-1.17,.11-1.73,.34-.56,.23-1.06,.56-1.5,1-.44,.44-.76,.92-.96,1.45-.18,.48-.23,.9-.13,1.24,.1,.35,.3,.61,.62,.8,.32,.19,.76,.28,1.33,.28,.31,0,.66-.02,1.05-.07,.39-.05,.88-.14,1.49-.28Zm.39,2.12c.49-1,.88-1.82,1.17-2.45,.53-1.15,1.04-2.3,1.52-3.44,.48-1.14,.86-2.07,1.14-2.79,.59,0,1.12,.01,1.58,.01,.31,0,.76,0,1.35-.01l-1.04,2.3-1.57,3.6-.36,.88c.75,.01,1.24,.02,1.47,.02,1.16,0,2.04-.01,2.64-.04l-.88,1.92c-1.15,0-2.25-.01-3.3-.01-1.42,0-2.66,0-3.72,.01Zm7.97,0c.53-1.09,.96-2.01,1.29-2.75,.33-.74,.76-1.72,1.28-2.94,.52-1.22,.85-2.03,1-2.43l.21-.56c1.03,0,2.29,.01,3.76,.01,1.36,0,2.56,0,3.6-.01l-.09,.21c-.02,.05-.11,.23-.24,.55l-.3,.69c-.07,.15-.13,.3-.18,.45-.84-.03-1.54-.05-2.12-.05-.63,0-1.06,0-1.28,0-.22,0-.57,.01-1.05,.03l-.64,1.46c.51,.01,1.12,.02,1.81,.02,.25,0,.91-.01,1.98-.04-.25,.54-.54,1.19-.87,1.94-.76,0-1.34-.01-1.75-.01-.61,0-1.29,.01-2.05,.04l-.67,1.54h.76c.22,0,.69,0,1.4-.02l1.38-.03c.2,0,.55-.02,1.03-.05-.29,.63-.58,1.28-.87,1.95-1.07,0-2.24-.01-3.52-.01h-3.84Zm8.88-.12c.29-.9,.5-1.63,.63-2.17,.41,.21,.8,.36,1.15,.44,.35,.08,.68,.12,.97,.12,.38,0,.71-.05,.98-.16,.27-.11,.44-.27,.52-.48,.03-.07,.04-.14,.05-.21,0-.07-.01-.14-.04-.22-.03-.08-.08-.17-.16-.27l-.84-1.04c-.2-.24-.34-.41-.41-.51-.15-.22-.26-.42-.31-.6-.06-.19-.08-.38-.07-.57,.01-.19,.06-.4,.15-.61,.1-.26,.24-.51,.43-.76,.19-.25,.42-.48,.69-.7,.27-.22,.59-.4,.97-.56s.75-.26,1.12-.32c.38-.06,.76-.09,1.13-.09,.74,0,1.52,.08,2.33,.25-.1,.29-.19,.56-.26,.8-.08,.24-.2,.67-.36,1.28-.34-.16-.67-.27-.98-.33-.31-.06-.59-.09-.83-.09-.34,0-.65,.06-.92,.18-.27,.12-.44,.28-.51,.46-.03,.08-.05,.17-.04,.25s.03,.17,.09,.28c.06,.11,.14,.23,.25,.36,.11,.13,.28,.32,.53,.57l.34,.36c.1,.11,.2,.24,.3,.4,.1,.16,.18,.31,.24,.46,.06,.15,.1,.29,.11,.42,.01,.13,.01,.26,0,.39-.02,.13-.06,.27-.11,.42-.15,.38-.38,.74-.7,1.09-.32,.35-.7,.63-1.13,.85-.43,.22-.87,.38-1.32,.47-.45,.09-.91,.13-1.37,.13-.71,0-1.57-.1-2.58-.3Zm19.48-1.98c-.15,.25-.34,.6-.59,1.04-.25,.45-.43,.79-.55,1.04-.99,.14-1.86,.2-2.6,.2s-1.34-.09-1.89-.26c-.55-.17-1-.45-1.37-.84-.36-.39-.55-.85-.57-1.38s.1-1.12,.35-1.78c.29-.77,.7-1.46,1.24-2.07,.53-.61,1.15-1.12,1.86-1.53,.71-.41,1.43-.7,2.17-.88,.73-.18,1.45-.26,2.16-.26,.65,0,1.42,.08,2.32,.24l-.19,.53c-.08,.23-.16,.49-.25,.77l-.23,.72c-.47-.12-.85-.2-1.16-.24-.3-.04-.59-.06-.86-.06-.59,0-1.17,.11-1.73,.34-.56,.23-1.06,.56-1.5,1-.44,.44-.76,.92-.96,1.45-.18,.48-.23,.9-.13,1.24,.1,.35,.3,.61,.62,.8,.32,.19,.76,.28,1.33,.28,.31,0,.66-.02,1.05-.07,.39-.05,.88-.14,1.49-.28Zm9.28-6.73c.7,0,1.35,.09,1.93,.27,.58,.18,1.04,.47,1.37,.87,.33,.4,.52,.86,.57,1.38,.04,.52-.07,1.12-.32,1.8-.27,.71-.65,1.37-1.15,1.96-.49,.59-1.07,1.1-1.73,1.52s-1.37,.72-2.14,.91c-.77,.19-1.53,.29-2.28,.29s-1.42-.09-2.03-.28c-.61-.19-1.09-.49-1.43-.92-.34-.42-.52-.89-.53-1.41-.01-.52,.1-1.09,.34-1.72,.35-.93,.89-1.74,1.6-2.44,.71-.7,1.59-1.25,2.61-1.64,1.03-.39,2.09-.59,3.19-.59Zm-.85,1.91c-.51,0-1.01,.12-1.51,.36-.5,.24-.94,.57-1.32,1-.38,.43-.67,.88-.85,1.37-.17,.45-.23,.86-.17,1.23,.06,.37,.25,.66,.58,.87,.33,.21,.72,.31,1.18,.31,.49,0,.98-.12,1.48-.35,.5-.24,.93-.57,1.31-.99,.38-.43,.65-.87,.83-1.34,.17-.45,.23-.87,.18-1.25-.05-.38-.23-.68-.53-.89-.3-.21-.69-.32-1.17-.32Zm3.71,6.93c.25-.57,.58-1.33,.97-2.3l1.35,.02c.15,0,.53,0,1.15-.02-.21,.46-.54,1.23-1,2.3h-1.14c-.08-.01-.53,0-1.34,0ZM57.21,14.14l-.78,1.81h-9.16l.57-1.32c-2.04,.44-4.17,.89-5.8,1.25l.45-1.86c.71-.1,1.59-.26,2.55-.44l1.87-4.35h-2.09l.76-1.76h2.09l.55-1.27h-1.19l.33-.77c-.37,.26-.72,.51-1.07,.73,.1-.45,.25-1.62,.26-2.12,1.58-.94,3.47-2.46,4.88-4.04l1.05,.7c-.19,.21-.36,.42-.56,.63,.7,.61,1.33,1.36,1.62,1.95l-1.49,1.71c-.05-.1-.11-.19-.15-.31l-.66,1.53h-1.48l-.55,1.27h1.92l-.76,1.76h-1.92l-1.75,4.06c.71-.12,1.42-.26,2.13-.38l-.45,1.24h4.73c.63-.71,1.42-1.65,1.92-2.37l1.65,.38c-.61,.71-1.21,1.39-1.74,1.98h2.27Zm-11.42-4.27c-.13,.94-.42,2.18-.69,2.98l-1.38,.4c.3-.84,.6-2.07,.79-3.03l1.28-.35Zm5.98-5.4c-.34-.56-.81-1.15-1.32-1.65-.62,.59-1.23,1.13-1.87,1.65h3.19Zm-4.64,8.17c.55-.8,1.32-2.06,1.81-2.93l1.15,.38c-.73,1.03-1.53,2.18-2.08,2.93l-.88-.38Zm13.15-5.73h-8.79l.75-1.74h8.79l-.75,1.74Zm-7.24-2.47l1.6-3.73h1.63l-.87,2.02h1.34L57.87,.11h1.77l-1.13,2.63h1.42l.87-2.02h1.69l-1.6,3.73h-7.84Zm4.38,7.24h-7.24l1.76-4.07h7.24l-1.76,4.07Zm-7.12,2.44c.13-.49,.25-1.29,.22-1.85l1.83-.44c.07,.56,.02,1.31-.1,1.79l-1.95,.49Zm6.3-5.02h-3.49l-.47,1.1h3.49l.47-1.1Zm15.34-.98l-.26,.59h2.19l-.42,.98h-2.19l-.26,.61h2.2l-.41,.96h-2.2l-.28,.64h3.51s-.19,.4-.3,.59c-1.03,2.05-1.6,3-2.09,3.36-.38,.31-.73,.44-1.1,.45-.31,.05-.87,.07-1.42,.03,.16-.42,.26-.98,.25-1.36,.38,.05,.71,.07,.87,.07s.28-.02,.45-.16c.22-.17,.55-.68,1.13-1.81h-6.37l1.84-4.27c-.32,.19-.66,.37-.99,.54,0-.3-.15-.78-.29-1.17l-2.62,6.09c-.35,.82-.67,1.31-1.25,1.6-.55,.31-1.16,.35-2.07,.35,.15-.47,.31-1.27,.3-1.74,.47,.03,.97,.03,1.12,.02,.18,0,.25-.05,.35-.28l1.56-3.62h-1.24c-.97,2-2.12,4.11-3.34,5.69-.17-.28-.69-.68-.99-.84,1.81-2.42,3.36-5.9,4.46-8.45l2.72-6.32h4.23l-3.02,7.02c.91-.44,1.75-.99,2.56-1.64h-1.58l.65-1.52h2.53c.24-.26,.47-.52,.7-.8h-2.46l.64-1.48h.76c.11-.49,.17-1.11,.14-1.6l1.6-.44c.07,.54,.02,1.27-.1,1.79l-.85,.24h1.38c.47-.68,.91-1.41,1.33-2.19l1.58,.21c-.4,.7-.79,1.36-1.23,1.98h1.79l-.55-.19c.5-.56,1.12-1.34,1.52-1.92l1.58,.47c-.57,.61-1.12,1.18-1.56,1.64h1.42l-.64,1.48h-4.62c-.22,.28-.43,.54-.65,.8h5.31l-.65,1.52h-1.75c.26,.7,.76,1.27,1.43,1.6-.53,.33-1.34,1.01-1.77,1.45-.38-.24-.69-.59-.93-1.01h-1.67Zm-7.92,.57l.93-2.16h-1.14l-.21,.49c-.23,.52-.47,1.08-.74,1.67h1.16Zm1.5-6.13l-.9,2.09h1.14l.9-2.09h-1.14Zm-2.86,13.04c.72-.52,1.52-1.51,2.06-2.4l1.19,.26c-.58,.98-1.45,2.11-2.32,2.8l-.94-.66Zm4.49-1.99c-.12,.68-.39,1.62-.61,2.21l-1.22,.23c.25-.61,.52-1.55,.68-2.25l1.16-.19Zm3.32-5.5h-1.43l-.26,.59h1.43l.26-.59Zm-.68,1.57h-1.43l-.26,.61h1.43l.26-.61Zm-.67,1.57h-1.43l-.28,.64h1.43l.28-.64Zm1.5-5.17c-.3,.3-.6,.57-.92,.85h3.44c-.06-.28-.1-.56-.13-.85h-2.4Zm-1.97,7.33c0,.61-.09,1.41-.22,1.93l-1.15,.35c.14-.54,.24-1.38,.26-1.99l1.11-.3Zm.6,1.52c.04-.38-.03-.98-.13-1.41l1.04-.44c.13,.44,.21,.98,.2,1.34l-1.1,.51ZM94.46,.84l-6.71,15.59h-1.9l.31-.73h-10.01l-.31,.73h-1.82L80.73,.84h13.73Zm-7.5,13.01l4.8-11.15h-2c.4,.28,.77,.68,.92,1.01l-.96,.73h.77l-.63,1.46h-2.88c-.34,.98-.63,1.88-.84,2.66,.61-.68,1.16-1.39,1.69-2.18l1.33,.31c-1.04,1.51-2.19,2.84-3.41,3.99-.02,.52,.08,.85,.34,.92,.15,.07,.57-.61,1.07-1.62,.15,.31,.53,.78,.77,.98-1.18,2.14-2.3,2.8-3.14,2.28-.41-.17-.64-.57-.71-1.15-.76,.56-1.52,1.06-2.31,1.48-.07-.31-.3-.98-.51-1.25,.22-.1,.45-.23,.67-.35-1.38,.21-2.72,.4-3.86,.59l.48-1.52c1.23-.14,3-.35,4.78-.59l-.34,.87c.4-.26,.79-.56,1.18-.87,.2-1.25,.68-2.84,1.27-4.56h-4.47l.63-1.46h4.36c.18-.49,.37-.98,.56-1.48h1.58c-.2,.5-.4,.99-.57,1.48h1.74c-.2-.31-.53-.68-.84-.92l1.11-.82h-7.77l-4.8,11.15h10.01Zm-3.75-3.88h-3.59l1.42-3.31h3.59l-1.42,3.31Zm-.34-2.21h-1.08l-.48,1.11h1.08l.48-1.11Zm17.85-.03c-.75,.59-1.52,1.1-2.29,1.52-.04-.35-.22-.91-.38-1.22-.12,.61-.31,1.17-.52,1.65-.48,1.11-1,1.86-1.67,2.26-.32,.21-.66,.33-1.03,.4-.29,.04-.64,.04-.97,.02,.19-.47,.36-1.22,.32-1.71,.26,.03,.47,.03,.64,.02,.16,0,.32-.03,.48-.14,.24-.16,.5-.56,.71-1.06,.36-.84,.69-1.97,.37-3.22,.76-1.06,1.66-2.47,2.39-3.6h-1.18l-5.9,13.71h-1.64L96.75,.78h3.38l.29-.07,.87,.71c-.48,.71-1.04,1.51-1.59,2.28,1.29-.94,2.51-2.21,3.52-3.57l1.25,.35c-.22,.3-.45,.59-.7,.89h1.21l.29-.07,.78,.4-.2,.31,.89-.21,.36-.8h2.54l.34-.09,.75,.66c-1.05,1.43-2.45,2.96-3.66,4.01,.21,.92,.65,1.71,1.31,2.19-.5,.33-1.26,.99-1.7,1.45-.51-.49-.86-1.11-1.11-1.83l-.46,1.06h-4.7l.32-.75Zm.26-1.79c.31-.26,.63-.57,.95-.89-.18-.33-.43-.71-.67-1.06-.51,.47-1.01,.89-1.51,1.24-.1-.21-.32-.56-.53-.82-.39,.57-.82,1.15-1.2,1.65,.14,.68,.14,1.32,.04,1.92,.79-.38,1.6-.94,2.41-1.6-.68,.12-1.26,.23-1.92,.35l.37-1.27c.68-.05,1.41-.14,2.34-.24l-.28,.73Zm-1.58,6.62c-1.06,1.08-2.51,2.39-3.55,3.19-.23-.33-.76-.82-1.07-1.06,1.02-.71,2.26-1.78,3.16-2.73l1.46,.61Zm3.1-1.22l-2.16,5.02h-1.8l2.16-5.02h-3.01l.71-1.65h7.79l-.71,1.65h-2.98Zm.08-8.6l-.2,.21c.22,.28,.45,.59,.64,.87,.29-.33,.57-.7,.85-1.08h-1.29Zm2.82,4.11c-.27-1.17-.25-2.59-.02-4.14-1.12,1.62-2.33,3.01-3.6,4.14h3.62Zm1.56-4.44c-.08,.59-.11,1.15-.08,1.69,.51-.51,1.04-1.1,1.5-1.69h-1.42Zm-2.53,9.35c.32,.85,.81,2.07,.97,2.82l-1.92,1.03c-.1-.77-.54-2.04-.83-2.96l1.78-.89Zm17.02,2.3h-6.42l-1.01,2.35h-1.96l1.01-2.35h-6.23l.8-1.86h6.23l.41-.94h-4.64l3.01-6.98h4.64l.36-.84h-5.84l.81-1.88h5.84l.61-1.41h1.96l-.61,1.41h5.95l-.81,1.88h-5.95l-.36,.84h4.75l-3.01,6.98h-4.75l-.41,.94h6.42l-.8,1.86Zm-8.14-7.07h2.8l.46-1.06h-2.8l-.46,1.06Zm1.67,2.61l.46-1.06h-2.8l-.46,1.06h2.8Zm3.55-3.67l-.46,1.06h2.82l.46-1.06h-2.82Zm1.69,2.61h-2.82l-.46,1.06h2.82l.46-1.06Zm8.8,5.14c-1.52,.99-3.84,1.9-5.68,2.32-.05-.44-.26-1.11-.48-1.5,1.71-.24,3.84-.84,5.1-1.48l1.07,.66Zm9.8-2.94l-.73,1.71h-6.24l-1.71,3.97h-1.9l1.71-3.97h-6.13l.73-1.71h6.13l.33-.77h-4.64l.65-1.5h4.64l.34-.78h-5.44l.67-1.57h2.96c.03-.4,0-.89-.05-1.27l1.19-.26h-4.1l.7-1.62h2.19c.04-.66-.01-1.5-.1-2.16l1.9-.59c.17,.73,.25,1.78,.17,2.44l-.91,.31h1.48l1.22-2.84h1.77l-1.22,2.84h1.21l1.22-2.84h1.8l-1.22,2.84h1.43l-.5-.19c.67-.7,1.56-1.76,2.11-2.51l1.79,.5c-.8,.8-1.57,1.58-2.23,2.19h2.08l-.7,1.62h-4.25l1.33,.42c-.53,.42-1.04,.8-1.46,1.11h3.11l-.67,1.57h-5.58l-.34,.78h4.83l-.65,1.5h-4.83l-.33,.77h6.24Zm-6.64-6.15c.07,.44,.11,.94,.08,1.31l-.97,.23h4.39l-.5-.19c.43-.4,.99-.92,1.4-1.34h-4.41Zm1.44,8.32c1.08,.52,2.6,1.39,3.39,1.95l-1.84,1.13c-.69-.57-2.17-1.5-3.26-2.11l1.71-.98ZM198.43,.27h-17.1l-6.64,15.56h17.1L198.43,.27Zm12.5,0h-9.84l-6.64,15.56h9.84L210.93,.27Zm7.27,0h-4.66l-6.64,15.56h4.66L218.2,.27Zm5.18,0h-2.27l-6.64,15.56h2.27L223.38,.27Z"/><path class="cls-2" d="M123.4,77.73L.35,77.28l123.28-.45-.23,.91Zm155.24-.91l-130.55,.45,130.29,.45,.26-.91ZM58.03,31.14c-.39,.84-1,1.56-1.85,2.14-.84,.59-1.68,.88-2.52,.88h-12.48c-1.39,0-2.02,.42-1.91,1.26,.03,.21,.14,.44,.35,.69l8.65,11.98c.31,.42,.51,.99,.61,1.7,.15,1.05,.03,2.02-.36,2.9-.32,.71-.89,1.33-1.7,1.86s-1.64,.79-2.48,.79h-15.13c-1.18,0-1.84-.5-1.97-1.51-.06-.46,.03-.97,.3-1.51l6.63-15.12c.25-.55,.34-1.05,.28-1.52-.14-1.01-.8-1.52-1.98-1.52-.84,0-1.67,.3-2.51,.89-.84,.59-1.45,1.31-1.84,2.15l-6.63,15.12c-.39,.84-1,1.55-1.85,2.14-.84,.59-1.69,.88-2.53,.88H1.99c-1.18,0-1.84-.5-1.97-1.51-.06-.46,.03-.97,.3-1.51L22.56,1.64c.48-1.09,1.08-1.64,1.79-1.64,.38,0,.7,.19,.96,.57l10.35,14.25c.31,.42,.51,.99,.61,1.7,.15,1.05,.03,2.02-.35,2.9l-3.82,8.71c-.24,.54-.32,1.05-.26,1.51,.14,1,.8,1.51,1.97,1.51,.84,0,1.68-.29,2.53-.88,.84-.59,1.44-1.3,1.78-2.14l1.35-3.03c.39-.84,1-1.55,1.85-2.14,.84-.59,1.68-.88,2.53-.88h15.13c1.18,0,1.84,.5,1.97,1.51,.06,.46-.04,.97-.3,1.51l-2.63,6.05Zm80.36,44.63c-.48,1.09-1.08,1.64-1.79,1.64-.38,0-.72-.21-1.03-.63l-10.28-14.18c-.31-.42-.51-.95-.6-1.58-.17-1.22,0-2.35,.48-3.4L149,3.17c.35-.84,.95-1.56,1.81-2.14,.87-.59,1.72-.88,2.56-.88h15.13c1.13,0,1.77,.5,1.91,1.51,.06,.46-.01,.97-.23,1.51l-4.29,9.82c-.22,.55-.3,1.05-.23,1.51,.14,1.01,.8,1.51,1.97,1.51,1.51,0,2.32,.36,2.42,1.07,.09,.63-.39,1.13-1.43,1.51-.84,.29-1.62,.44-2.33,.44-.84,0-1.68,.29-2.53,.88-.84,.59-1.46,1.3-1.85,2.14l-23.53,53.71Zm117.09-4.53h-10.9l3.72-8.72h10.9l-3.72,8.72Zm7,0h-5.51l3.72-8.72h5.51l-3.72,8.72Zm4.07,0h-2.61l3.72-8.72h2.61l-3.72,8.72Zm2.9,0h-1.27l3.72-8.72h1.27l-3.72,8.72ZM228,9.81l-.75,1.77h11.28s-.08,.12-.16,.25c-.09,.13-.17,.26-.26,.4s-.17,.27-.26,.38c-.08,.12-.14,.19-.16,.21-.19,.24-.45,.51-.77,.82-.32,.31-.64,.61-.95,.9-.31,.28-.59,.53-.82,.72-.24,.2-.36,.29-.38,.29h-14.81l3.24-7.71h5.62l-.28,.71,.75-.71h6.77l-2.2,1.97h-5.86Zm-4.19-3.39h5.62l-.51,1.18h-5.62l.51-1.18Zm.58-1.41h5.62l-.41,.97h-5.62l.41-.97Zm15.17-1.09h-9.07l-.2,.44h-5.62l.34-.77h15.16c-.29,.22-.49,.32-.61,.32Zm1.78-1.46c-.07,.09-.15,.17-.23,.25h-15.72l.21-.53h15.99c-.08,.1-.16,.19-.24,.28Zm1.31-1.53s-.08,.1-.13,.16h-16.46l.14-.32h16.58c-.04,.06-.09,.11-.13,.16Zm-11.8,5.49h6.8l-1.33,1.18h-6.74l1.27-1.18Zm.65-.59h6.8l-.19,.15h-6.77l.16-.15Zm13.22-5.06h5.12v.32h-5.11v-.32Zm.12,1.41h5.09l.06,.53h-5.12l-.03-.53Zm.12,1.41h5.1l.04,.77h-5.06l-.07-.77Zm.12,1.41h5.06l.09,.97h-5.06l-.09-.97Zm.13,1.41h5.06l.08,1.18h-5.06l-.08-1.18Zm7.54,1.41h6.18l-4.78,5.89c-.1,.12-.25,.27-.44,.47-.19,.2-.39,.4-.61,.6-.22,.21-.44,.38-.66,.53-.23,.15-.41,.22-.54,.22h-4.86c-.22,0-.4-.11-.54-.32-.15-.22-.27-.48-.37-.79-.1-.31-.18-.64-.24-.99-.06-.34-.11-.63-.16-.87l-.44-4.74h5.06l.2,2.62,2.18-2.62Zm1.17-1.41h6.18l-.98,1.18h-6.18l.98-1.18Zm1.17-1.41h6.15l-.79,.97h-6.18l.82-.97Zm1.17-1.41h6.15l-.63,.77h-6.15l.63-.77Zm1.2-1.41h6.09l-.44,.53h-6.09l.44-.53Zm1.17-1.41h6.07l-.25,.32h-6.1l.28-.32Z"/></g></g></svg>