<?xml version="1.0" encoding="UTF-8"?><svg id="_層_2" xmlns="http://www.w3.org/2000/svg" viewBox="0 0 716 488.94"><defs><style>.cls-1{fill:#e8eaec;}</style></defs><g id="_層_2-2"><path class="cls-1" d="M60.41,0H655.59c33.25,0,60.41,27.16,60.41,60.41V428.53c0,33.25-27.16,60.41-60.41,60.41H60.41c-33.25,0-60.41-27.16-60.41-60.41V60.41C0,27.16,27.16,0,60.41,0h0Zm.39,34.83c92.59,93,177.14,177.95,264.94,266.1,18.74,18.74,45.75,18.68,64.54,.07,88.05-88.48,172.92-173.73,264.94-266.18H60.8Zm620.26,23.22l-188.06,188.99,188.17,169.24V60.41l-.11-2.36h0Zm-212.63,213.67l-53.58,53.85c-32.57,32.22-81.13,32.36-113.64-.04l-53.17-53.42L48.81,451.31c3.49,1.79,7.44,2.81,11.6,2.81H655.59c4.4,0,8.56-1.13,12.19-3.11l-199.35-179.29h0Zm-244.95-24.28L34.93,58.03l-.11,2.38V417.12L223.48,247.44h0Z"/></g></svg>