<?xml version="1.0" encoding="UTF-8"?><svg id="_層_2" xmlns="http://www.w3.org/2000/svg" viewBox="0 0 190.02 91.34"><defs><style>.cls-1{fill:#0080be;}</style></defs><g id="_層_1-2"><g><path class="cls-1" d="M46.52,88.7c-10.37-12.93-20.47-26.06-31.92-38.08-3.95-4.14-7.98-8.2-12.03-12.24-1.37-1.36-3.49,.76-2.12,2.12,6.47,6.43,12.89,12.93,18.96,19.74,4.95,5.55,9.64,11.34,14.28,17.16,3.57,4.47,7.13,8.96,10.71,13.42,1.21,1.51,3.32-.63,2.12-2.12h0Z"/><path class="cls-1" d="M170.26,64.94c7.93-18.88,13.81-38.51,19.69-58.09,.56-1.85-2.34-2.64-2.89-.8-5.88,19.59-11.76,39.22-19.69,58.09-.32,.75,.34,1.64,1.05,1.85,.86,.25,1.53-.3,1.85-1.05h0Z"/><g><path class="cls-1" d="M67.56,40.67l-7.32,1.07-16.36-13.09,2.21,15.15-8.15,1.19-3.96-27.21,7.3-1.06,16.31,13.02-2.19-15.08,8.21-1.2,3.96,27.21Z"/><path class="cls-1" d="M97,36.38l-20.57,3-3.96-27.21,20.23-2.95,.79,5.46-12.01,1.75,.73,4.99,11.45-1.67,.8,5.48-11.46,1.67,.85,5.81,12.34-1.8,.8,5.48Z"/><path class="cls-1" d="M144.75,1.65l-7.8,29.28-4.76,.69-9.42-15.01-4.93,17.09-4.8,.7-15.59-25.88,8.52-1.24,7.86,14.25,4.3-16.02,5.88-.86,8.57,14.15,3.73-15.94,8.42-1.23Z"/><path class="cls-1" d="M158.25,5.45c.15,1.03,.2,2.34,.14,3.93-.06,1.59-.19,3.16-.41,4.73-.21,1.57-.43,2.68-.66,3.34-.13,.38-.29,.66-.48,.83-.19,.17-.51,.29-.95,.36-.43,.06-.76,.04-.98-.07-.22-.11-.47-.33-.73-.67-.46-.66-1-1.67-1.64-3.06-.64-1.38-1.21-2.82-1.73-4.31-.52-1.49-.86-2.78-1.01-3.86-.3-2.07-.08-3.65,.67-4.76,.75-1.1,1.66-1.73,2.72-1.89,1.06-.16,2.1,.19,3.1,1.03,1.01,.84,1.66,2.3,1.97,4.39Zm2.58,17.69c.17,1.18-.09,2.23-.77,3.17-.69,.94-1.62,1.49-2.8,1.66-.72,.1-1.44,.02-2.17-.26-.72-.28-1.33-.71-1.82-1.32-.49-.6-.79-1.28-.9-2.02-.11-.76-.02-1.49,.27-2.19,.29-.71,.74-1.29,1.34-1.77,.6-.47,1.28-.77,2.04-.88,.73-.11,1.46-.02,2.18,.26,.72,.28,1.31,.72,1.77,1.31,.46,.59,.75,1.27,.86,2.04Z"/></g></g></g></svg>