<?xml version="1.0" encoding="UTF-8"?><svg id="_層_2" xmlns="http://www.w3.org/2000/svg" viewBox="0 0 46.29 47.63"><defs><style>.cls-1{fill:#fff;}</style></defs><g id="_層_2-2"><g id="_"><g><path class="cls-1" d="M33.33,18.65c.82,1.68,1.23,3.48,1.23,5.33,0,1.01,.81,1.82,1.82,1.82h0c1,0,1.82-.81,1.82-1.82,0-2.41-.53-4.74-1.59-6.92-1.31-2.71-3.34-4.97-5.89-6.56-2.47-1.54-5.31-2.37-8.22-2.41-1.01,0-1.83,.79-1.84,1.8-.01,1.01,.79,1.83,1.8,1.84,4.67,.06,8.84,2.71,10.87,6.91Z"/><path class="cls-1" d="M43.89,13.54c-1.99-4.1-5.07-7.53-8.93-9.93C31.21,1.29,26.9,.04,22.49,0h-.02c-1,0-1.81,.8-1.82,1.8,0,1.01,.8,1.83,1.8,1.84,7.8,.07,14.76,4.47,18.15,11.48,1.35,2.8,2.04,5.78,2.04,8.86,0,1.01,.81,1.82,1.82,1.82h0c1,0,1.82-.81,1.82-1.82,0-3.64-.8-7.15-2.4-10.45Z"/><path class="cls-1" d="M37.76,32.41c-.64-.69-1.56-1.09-2.5-1.09-.69,0-1.36,.21-1.93,.6l-3.87,2.49c-.78-.33-3.4-1.79-9.29-8.09-5.92-6.34-7.17-9.04-7.43-9.82l2.75-3.69c1.04-1.32,.97-3.23-.18-4.46L9.28,1.89c-.68-.73-1.6-1.13-2.6-1.13-1.07,0-2.08,.48-2.76,1.31l-1.68,2.07C.74,5.91-.02,8.12,0,10.69c.02,2.26,.64,4.81,1.84,7.58,2.03,4.67,5.79,10.08,10.61,15.25,2.53,2.71,6.51,6.59,11.1,9.65,4.43,2.96,8.39,4.46,11.76,4.46,2.19,0,4.13-.64,5.75-1.9l2.17-1.53c.84-.59,1.38-1.52,1.49-2.54,.11-1.02-.24-2.04-.94-2.79l-6.03-6.46Z"/></g></g></g></svg>