<?xml version="1.0" encoding="UTF-8"?><svg id="_層_2" xmlns="http://www.w3.org/2000/svg" viewBox="0 0 359.81 99.61"><defs><style>.cls-1{fill:#1a1a1a;}</style></defs><g id="_層_1-2"><g><path class="cls-1" d="M32.15,23.49H16.14v15.61H4.51V.53h27.64v7.74H16.14v7.46h16v7.76Z"/><path class="cls-1" d="M48.87,39.1h-10.05V10.77h10.05v28.33Zm-.81-34.87c0,1.17-.42,2.16-1.25,2.98-.83,.82-1.83,1.22-2.98,1.22-.78,0-1.49-.19-2.13-.56-.64-.37-1.15-.88-1.52-1.52-.37-.64-.56-1.35-.56-2.13,0-1.15,.41-2.14,1.22-2.98,.82-.83,1.81-1.25,2.98-1.25s2.14,.42,2.98,1.25c.83,.84,1.25,1.83,1.25,2.98Z"/><path class="cls-1" d="M86.03,39.1h-10.02v-15.28c0-1.56-.25-2.92-.77-4.08-.51-1.16-1.63-1.74-3.35-1.74-.82,0-1.54,.15-2.16,.46-.62,.31-1.18,.7-1.67,1.18-.49,.48-.9,.95-1.24,1.39s-.68,.92-1.03,1.42v16.64h-10.02V10.77h10.02v4.06c1.58-1.69,3.16-2.87,4.75-3.55,1.59-.68,3.35-1.02,5.3-1.02,6.79,0,10.19,4.06,10.19,12.19v16.64Z"/><path class="cls-1" d="M122.02,39.1h-10.05v-2.56c-1.06,.89-2.18,1.62-3.35,2.2-1.18,.58-2.81,.86-4.88,.86s-4.08-.51-6.07-1.53c-1.99-1.02-3.62-2.61-4.9-4.77-1.28-2.16-1.92-4.88-1.92-8.17,0-2.58,.48-5,1.45-7.25,.96-2.25,2.48-4.09,4.54-5.5,2.06-1.41,4.58-2.12,7.57-2.12,1.85,0,3.36,.2,4.51,.61s2.17,.93,3.06,1.56V.53h10.05V39.1Zm-10.05-9.02v-10.83c-1.17-.65-2.08-1.11-2.74-1.39-.66-.28-1.43-.42-2.32-.42-1.58,0-2.89,.67-3.94,2-1.05,1.34-1.57,3.15-1.57,5.46,0,2.5,.55,4.33,1.66,5.47,1.1,1.14,2.39,1.71,3.85,1.71,1.21,0,2.18-.19,2.92-.57,.74-.38,1.46-.86,2.14-1.43Z"/><path class="cls-1" d="M167.63,37.46c-1.04,.5-2.47,.98-4.3,1.45-1.83,.46-3.58,.7-5.25,.7-7.22,0-10.83-3.53-10.83-10.58v-11.3h-4.54v-1.75l13.44-13.69h1.14V10.77h9.57v6.96h-9.57v9.07c0,1.06,.06,1.91,.19,2.56,.13,.65,.5,1.19,1.1,1.63,.6,.44,1.52,.65,2.74,.65,1.6,0,3.69-.67,6.29-2v7.82Z"/><path class="cls-1" d="M202.28,39.1h-10.02v-14.7c0-.11,0-.22,.01-.32,0-.1,.01-.32,.01-.65,0-1.35-.29-2.6-.86-3.73-.58-1.13-1.67-1.7-3.28-1.7-1.26,0-2.37,.42-3.34,1.27-.96,.84-1.88,1.91-2.75,3.19v16.64h-10.02V.53h10.02V14.83c1.65-1.76,3.28-2.96,4.9-3.6,1.61-.64,3.33-.96,5.15-.96,6.79,0,10.19,3.81,10.19,11.44v17.4Z"/><path class="cls-1" d="M237.35,27.36h-19.96c.39,1.73,1.34,3.14,2.87,4.23,1.52,1.1,3.25,1.64,5.18,1.64,3.38,0,7.11-.95,11.19-2.84v6.21c-1.47,.76-3.24,1.45-5.33,2.07-2.09,.62-4.75,.93-7.97,.93-3.49,0-6.46-.65-8.91-1.95-2.45-1.3-4.28-3.06-5.5-5.29-1.22-2.23-1.82-4.75-1.82-7.57s.61-5.27,1.82-7.47c1.21-2.2,3.05-3.92,5.5-5.18,2.45-1.25,5.42-1.88,8.91-1.88,2.3,0,4.52,.5,6.66,1.49,2.14,.99,3.91,2.62,5.29,4.87,1.38,2.25,2.07,5.16,2.07,8.73v2Zm-9.41-4.95c0-1.82-.45-3.27-1.35-4.36-.9-1.09-2.19-1.63-3.88-1.63s-3.02,.55-4.05,1.66c-1.03,1.1-1.54,2.55-1.54,4.33h10.83Z"/><path class="cls-1" d="M295.38,36.21c-1.6,.84-3.23,1.5-4.9,2-1.67,.5-3.35,.86-5.05,1.07-1.7,.21-3.46,.32-5.27,.32-3.36,0-6.37-.46-9.03-1.39-2.66-.93-4.97-2.3-6.93-4.11-1.96-1.81-3.42-3.92-4.4-6.35-.97-2.42-1.46-5.08-1.46-7.97,0-3.32,.58-6.23,1.73-8.73,1.15-2.5,2.76-4.57,4.83-6.22,2.07-1.65,4.42-2.87,7.07-3.66,2.64-.79,5.43-1.18,8.36-1.18,4.38,0,9.34,.97,14.89,2.92V13.17c-1.91-1.19-3.8-2.17-5.66-2.96-1.87-.79-4.06-1.18-6.58-1.18-2.25,0-4.34,.45-6.29,1.34-1.95,.89-3.52,2.16-4.7,3.81-1.19,1.65-1.78,3.58-1.78,5.79,0,1.95,.52,3.73,1.56,5.36,1.04,1.62,2.48,2.91,4.33,3.87,1.85,.96,3.93,1.43,6.25,1.43,1.87,0,3.65-.23,5.32-.68,1.67-.45,3.08-.96,4.22-1.52,1.14-.56,2.31-1.21,3.52-1.98v9.77Z"/><path class="cls-1" d="M330.95,37.69c-1.47,.57-2.82,1.04-4.06,1.39-1.24,.35-2.74,.53-4.48,.53-1.65,0-2.8-.29-3.45-.88-.65-.58-1.11-1.29-1.39-2.13-1.08,.87-2.27,1.59-3.59,2.16-1.32,.57-3.04,.85-5.18,.85s-3.73-.36-5-1.07c-1.27-.71-2.16-1.61-2.67-2.7-.51-1.08-.77-2.2-.77-3.35,0-1.74,.44-3.19,1.32-4.33,.88-1.14,2.06-2.07,3.55-2.8,1.48-.72,3.45-1.47,5.9-2.25,1.39-.45,2.44-.78,3.16-1.02,.71-.23,1.25-.41,1.6-.54,.35-.13,.72-.3,1.11-.5,0-1.37-.28-2.45-.83-3.23-.56-.78-1.76-1.17-3.62-1.17-2.19,0-4.22,.48-6.09,1.45-1.88,.96-3.59,2.21-5.15,3.73v-7.68c1.24-.89,2.59-1.62,4.04-2.18,1.45-.57,2.96-.99,4.54-1.27,1.58-.28,3.17-.42,4.79-.42,4.1,0,7.18,.79,9.25,2.38,2.07,1.59,3.1,3.77,3.1,6.55v10.94c0,1.04,.1,1.81,.29,2.32,.2,.51,.55,.77,1.07,.77,.63,0,1.48-.27,2.56-.81v5.26Zm-13.94-5.43v-6.71c-2.37,.96-4.11,1.83-5.2,2.6-1.1,.77-1.64,1.81-1.64,3.13,0,.95,.27,1.67,.82,2.17,.55,.5,1.18,.75,1.91,.75,.69,0,1.37-.19,2.05-.57,.68-.38,1.37-.84,2.07-1.38Z"/><path class="cls-1" d="M359.81,12.3l-3.7,10.05c-1.52-1.45-3.06-2.17-4.62-2.17-1.41,0-2.63,.48-3.66,1.43-1.03,.96-2.02,2.72-2.96,5.3v12.19h-10.02V10.77h10.02v6.85c.63-1.69,1.74-3.33,3.34-4.94,1.6-1.6,3.47-2.41,5.62-2.41,1.13,0,2.12,.17,2.96,.5,.84,.33,1.85,.84,3.02,1.53Z"/><path class="cls-1" d="M42.14,60.53l-15.11,20.9v17.67H15.39v-17.45L0,60.53H12.08l8.85,12.13,8.88-12.13h12.33Z"/><path class="cls-1" d="M71.25,84.91c0,2.82-.61,5.33-1.84,7.54-1.22,2.21-3.06,3.95-5.5,5.23-2.44,1.28-5.41,1.92-8.92,1.92s-6.48-.64-8.92-1.92c-2.44-1.28-4.27-3.02-5.48-5.23-1.22-2.21-1.82-4.72-1.82-7.54,0-2.13,.34-4.07,1.02-5.82,.68-1.74,1.71-3.29,3.09-4.63,1.38-1.34,3.08-2.38,5.11-3.1,2.02-.72,4.36-1.08,7.01-1.08s5.03,.37,7.08,1.1c2.05,.73,3.75,1.76,5.09,3.08,1.35,1.32,2.36,2.86,3.05,4.62s1.03,3.71,1.03,5.84Zm-10.55,0c0-2.24-.49-4-1.46-5.27-.97-1.27-2.39-1.91-4.24-1.91s-3.24,.64-4.22,1.91c-.97,1.27-1.46,3.03-1.46,5.27s.49,3.99,1.47,5.29c.98,1.3,2.38,1.95,4.2,1.95s3.27-.64,4.24-1.93c.97-1.29,1.46-3.06,1.46-5.3Z"/><path class="cls-1" d="M106.29,99.1h-10.02v-4.04c-1.42,1.52-2.9,2.66-4.45,3.41-1.55,.75-3.42,1.13-5.6,1.13-4.27,0-7.04-1.25-8.3-3.74-1.26-2.5-1.89-5.31-1.89-8.45v-16.64h10.02v15.31c0,1.54,.26,2.89,.77,4.05,.51,1.16,1.62,1.74,3.33,1.74,1.47,0,2.63-.42,3.49-1.25,.86-.83,1.73-1.9,2.62-3.2v-16.64h10.02v28.33Z"/><path class="cls-1" d="M193.77,60.53l-16.7,39.08h-6.74l-10.02-22.74-10.27,22.74h-6.79l-16.37-39.08h12.05l8.02,21.38,9.19-21.38h8.32l9.02,21.38,8.38-21.38h11.91Z"/><path class="cls-1" d="M225.22,97.69c-1.47,.57-2.82,1.04-4.06,1.39-1.24,.35-2.74,.53-4.48,.53-1.65,0-2.8-.29-3.45-.88-.65-.58-1.11-1.29-1.39-2.13-1.08,.87-2.27,1.59-3.59,2.16-1.32,.57-3.04,.85-5.18,.85s-3.73-.36-5-1.07c-1.27-.71-2.16-1.61-2.67-2.7-.51-1.08-.77-2.2-.77-3.35,0-1.74,.44-3.19,1.32-4.33,.88-1.14,2.06-2.07,3.55-2.8,1.48-.72,3.45-1.47,5.9-2.25,1.39-.45,2.44-.78,3.16-1.02,.71-.23,1.25-.41,1.6-.54,.35-.13,.72-.3,1.11-.5,0-1.37-.28-2.45-.83-3.23-.56-.78-1.76-1.17-3.62-1.17-2.19,0-4.22,.48-6.09,1.45-1.87,.96-3.59,2.21-5.15,3.73v-7.68c1.24-.89,2.59-1.62,4.04-2.18,1.45-.57,2.96-.99,4.54-1.27,1.58-.28,3.17-.42,4.79-.42,4.1,0,7.18,.79,9.25,2.38,2.07,1.59,3.1,3.77,3.1,6.55v10.94c0,1.04,.1,1.81,.29,2.32,.2,.51,.55,.77,1.07,.77,.63,0,1.48-.27,2.56-.81v5.26Zm-13.94-5.43v-6.71c-2.37,.96-4.11,1.83-5.2,2.6-1.1,.77-1.64,1.81-1.64,3.13,0,.95,.27,1.67,.82,2.17,.55,.5,1.18,.75,1.91,.75s1.37-.19,2.05-.57c.68-.38,1.37-.84,2.07-1.38Z"/><path class="cls-1" d="M259.42,99.1h-10.02v-15.28c0-1.56-.25-2.92-.77-4.08-.51-1.16-1.63-1.74-3.35-1.74-.82,0-1.54,.15-2.16,.46-.62,.31-1.18,.7-1.67,1.18-.49,.48-.9,.95-1.24,1.39-.33,.45-.68,.92-1.03,1.42v16.64h-10.02v-28.33h10.02v4.06c1.58-1.69,3.16-2.87,4.75-3.55,1.59-.68,3.35-1.02,5.3-1.02,6.79,0,10.19,4.06,10.19,12.19v16.64Z"/><path class="cls-1" d="M287.78,97.46c-1.04,.5-2.47,.98-4.3,1.45-1.83,.46-3.58,.7-5.25,.7-7.22,0-10.83-3.53-10.83-10.58v-11.3h-4.54v-1.75l13.44-13.69h1.14v8.49h9.57v6.96h-9.57v9.07c0,1.06,.06,1.91,.19,2.56,.13,.65,.5,1.19,1.1,1.63,.6,.44,1.52,.65,2.74,.65,1.6,0,3.69-.67,6.29-2v7.82Z"/></g></g></svg>